<?xml version="1.0" encoding="UTF-8"?>
<svg id="Icon" xmlns="http://www.w3.org/2000/svg" xmlns:xlink="http://www.w3.org/1999/xlink" viewBox="0 0 512 512">
  <defs>
    <style>
      .cls-1 {
        fill: url(#Cinza_azulado);
      }

      .cls-2 {
        fill: url(#Céu_1);
      }

      .cls-3 {
        fill: url(#Céu_17);
      }
    </style>
    <linearGradient id="Céu_17" data-name="Céu 17" x1="4.05" y1="255.97" x2="508.2" y2="255.97" gradientUnits="userSpaceOnUse">
      <stop offset="0" stop-color="#e6b7d6"/>
      <stop offset=".51" stop-color="#cb93c0"/>
      <stop offset="1" stop-color="#d85c9b"/>
    </linearGradient>
    <linearGradient id="Céu_1" data-name="Céu 1" x1="-1.17" y1="274.92" x2="516.77" y2="262.51" gradientUnits="userSpaceOnUse">
      <stop offset="0" stop-color="#7bb9e7"/>
      <stop offset=".08" stop-color="#71b4e3"/>
      <stop offset=".22" stop-color="#58a6db"/>
      <stop offset=".4" stop-color="#2f90cd"/>
      <stop offset=".57" stop-color="#0078be"/>
      <stop offset="1" stop-color="#154f9e"/>
    </linearGradient>
    <linearGradient id="Cinza_azulado" data-name="Cinza azulado" x1="148.32" y1="325.55" x2="509.05" y2="325.55" gradientUnits="userSpaceOnUse">
      <stop offset="0" stop-color="#bed3e9"/>
      <stop offset=".5" stop-color="#98bbdb"/>
      <stop offset=".53" stop-color="#96bada"/>
      <stop offset="1" stop-color="#7fadd2"/>
    </linearGradient>
  </defs>
  <path class="cls-3" d="M256.12,52.69c112.27,0,203.29,91.01,203.29,203.29s-91.01,203.29-203.29,203.29S52.84,368.25,52.84,255.97,143.85,52.69,256.12,52.69m0-48.79c-34.01,0-67.03,6.67-98.13,19.83-30.02,12.7-56.98,30.87-80.11,54-23.13,23.13-41.3,50.09-54,80.11-13.16,31.11-19.83,64.13-19.83,98.13s6.67,67.03,19.83,98.13c12.7,30.02,30.87,56.98,54,80.11,23.13,23.13,50.09,41.3,80.11,54,31.11,13.16,64.13,19.83,98.13,19.83s67.03-6.67,98.13-19.83c30.02-12.7,56.98-30.87,80.11-54,23.13-23.13,41.3-50.09,54-80.11,13.16-31.11,19.83-64.13,19.83-98.13s-6.67-67.03-19.83-98.13c-12.7-30.02-30.87-56.98-54-80.11-23.13-23.13-50.09-41.3-80.11-54-31.11-13.16-64.13-19.83-98.13-19.83h0Z"/>
  <path class="cls-2" d="M444.97,433.52c-24.14,23.65-52.97,42.54-84.09,54.99-31.11,12.5-64.41,18.65-97.38,18.28-32.98-.37-65.66-7.26-95.63-20.1-29.99-12.79-57.18-31.59-79.52-54.49-22.35-22.91-40.15-50.2-51.86-79.64-11.76-29.43-17.51-60.92-17.09-92.08,.42-31.17,6.99-62.02,19.16-90.28,12.13-28.28,29.91-53.87,51.58-74.92,21.68-21.05,47.42-37.76,75.18-48.73,27.75-11.02,57.43-16.36,86.77-15.9,29.35,.46,58.38,6.72,84.93,18.23,26.57,11.47,50.56,28.23,70.32,48.66,19.76,20.44,35.37,44.65,45.6,70.73,10.27,26.07,15.22,53.93,14.72,81.47-.5,27.54-6.45,54.74-17.3,79.57-10.82,24.85-26.55,47.26-45.75,65.72l40.36,38.47Zm-40.36-38.47c17.52-20.08,30.93-43.41,39.24-68.23,8.35-24.81,11.64-51.06,9.87-76.73-1.78-25.68-8.62-50.75-19.91-73.35-11.26-22.62-26.95-42.71-45.71-59-18.78-16.28-40.52-28.67-63.63-36.33-23.1-7.69-47.52-10.67-71.38-8.94-23.86,1.74-47.13,8.18-68.05,18.72-20.94,10.52-39.49,25.12-54.55,42.58-15.04,17.49-26.42,37.64-33.42,59.04-7.03,21.38-9.69,43.98-8.01,66.02,1.69,22.05,7.74,43.51,17.53,62.75,9.78,19.26,23.28,36.26,39.45,50.1,16.2,13.81,34.75,24.16,54.44,30.5,19.67,6.36,40.44,8.72,60.67,7.08,20.24-1.65,39.89-7.3,57.44-16.35,17.58-9.04,33.04-21.45,45.64-36.32l40.36,38.47Z"/>
  <path class="cls-1" d="M483,451.54c8.52,4.66,13.94,10.51,19.15,17.07,2.56,3.22,7.6,.8,6.82-3.28-10.9-57.1-46.55-110.55-90.26-158.11-31.65-34.44-68.34-66.89-113.99-90.7-45.66-23.81-101.13-38.49-156.4-35.03,25.54,20.62,44.4,55.15,68.84,76.51,2.66,2.32,5.51,4.54,8.73,6.42,4.41,2.57,9.44,4.47,14.5,6.22,24.57,8.52,50.91,14.11,77.75,16.51-21.15,.45-42.3,.9-63.45,1.35,10.29,11.01,31,58.04,92.96,84.07,15.58,6.55,32.57,11.01,48.25,17.42,19.98,8.17,38.12,18.92,53.39,31.64,9.14,7.62,33.83-15.4,29.7,22.26-.34,3.15,1.28,6.15,4.01,7.64Z"/>
</svg>