<?xml version="1.0" encoding="UTF-8"?>
<svg id="Layer_1" data-name="Layer 1" xmlns="http://www.w3.org/2000/svg" viewBox="0 0 512 512">
  <defs>
    <style>
      .cls-1 {
        fill: #4a4a4a;
      }
    </style>
  </defs>
  <path class="cls-1" d="M160.44,10.19c-8.71,6.75-14.55,15.03-17.35,24.71L14.86,477.1c-2.81,9.68-1.77,17.96,3.02,24.71,4.79,6.75,12.07,10.19,21.75,10.19h69.8c9.68,0,18.96-3.44,27.66-10.19,8.71-6.75,14.55-15.03,17.35-24.71L282.68,34.9c2.81-9.68,1.77-17.96-3.02-24.71-4.79-6.75-12.07-10.19-21.75-10.19h-69.8c-9.68,0-18.96,3.44-27.66,10.19Z"/>
  <path class="cls-1" d="M375.69,10.19c-8.71,6.75-14.55,15.03-17.35,24.71l-128.23,442.2c-2.81,9.68-1.77,17.96,3.02,24.71,4.79,6.75,12.07,10.19,21.75,10.19h69.8c9.68,0,18.96-3.44,27.66-10.19,8.71-6.75,14.55-15.03,17.35-24.71L497.92,34.9c2.81-9.68,1.77-17.96-3.02-24.71-4.79-6.75-12.07-10.19-21.75-10.19h-69.8c-9.68,0-18.96,3.44-27.66,10.19Z"/>
</svg>