<?xml version="1.0" encoding="UTF-8"?>
<svg id="Layer_1" data-name="Layer 1" xmlns="http://www.w3.org/2000/svg" viewBox="0 0 512 512">
  <defs>
    <style>
      .cls-1 {
        fill: #66bb6a;
      }
    </style>
  </defs>
  <path class="cls-1" d="M266.1,512c17.18,0,31.09-13.04,31.09-29.35v-29.35c85.01-7.83,141.1-52.61,141.1-125.66v-1.09c0-74.14-47.83-108.27-143.06-130.45v-69.35c13.7,3.26,27.83,8.04,41.74,14.13,22.39,9.78,49.35,3.7,63.05-18.48,13.48-22.18,6.3-53.27-18.91-64.57-25-11.31-52.4-18.91-82.83-22.18v-17.61c0-10-13.91-18.05-31.09-18.05s-31.09,7.61-31.09,16.96v16.96c-91.53,6.52-143.06,55.66-143.06,126.32v1.3c0,74.14,49.13,107.18,145.45,129.14v71.75c-23.05-3.7-45.66-11.31-68.7-23.05-24.57-12.61-54.57-8.04-69.35,13.91-14.78,21.96-8.91,53.05,15.87,65.22,36.31,17.83,77.4,29.57,118.71,33.7v30c0,16.52,13.91,29.79,31.09,29.79ZM294.8,300.24c31.09,8.91,40,18.05,40,34.13v1.3c0,17.39-12.61,27.61-40,30.44v-65.88ZM198.48,152.62v-1.09c0-15.65,11.31-27.61,40.66-30v64.57c-32.18-9.13-40.66-18.05-40.66-33.48Z"/>
</svg>