<?xml version="1.0" encoding="UTF-8"?>
<svg id="Layer_1" data-name="Layer 1" xmlns="http://www.w3.org/2000/svg" viewBox="0 0 512 512">
  <defs>
    <style>
      .cls-1 {
        fill: #ffc91f;
      }
    </style>
  </defs>
  <path class="cls-1" d="M486.64,205.36c-.68,25.8-4.87,48.36-12.55,67.71-7.68,19.35-17.5,35.56-29.45,48.66-11.95,13.08-25.77,22.95-41.47,29.58-15.72,6.63-31.75,9.95-48.12,9.95s-30.56-2-42.51-5.98c-11.95-3.98-22.52-9.29-31.75-15.93-9.23-6.63-17.33-14.12-24.33-22.48-7-8.34-13.65-16.89-19.97-25.6-6.32-8.72-12.38-16.86-18.18-24.46-5.81-7.59-11.78-14.31-17.93-20.2-6.15-5.87-12.8-10.53-19.97-13.95-7.17-3.42-15.35-5.13-24.58-5.13-11.61,0-21.44,2.76-29.43,8.25-8.02,5.51-14.59,12.8-19.71,21.9-5.13,9.1-8.78,19.54-11.02,31.3-2.23,11.76-3.34,24.29-3.34,37.56,0,6.83-2.91,11.29-8.7,13.38-5.81,2.08-14.16,3.13-25.09,3.13-6.83,0-12.38-.38-16.65-1.15-4.27-.74-7.68-1.79-10.25-3.13-2.55-1.32-4.27-3.13-5.13-5.4-.85-2.28-1.28-4.74-1.28-7.4v-15.35c0-26.18,3.23-49.21,9.74-69.14,6.49-19.9,15.52-36.6,27.14-50.08,11.61-13.46,25.52-23.61,41.72-30.43,16.27-6.83,33.94-10.25,53.06-10.25,16.03,0,30.11,2,42.23,5.98,12.12,3.98,22.78,9.21,32.01,15.65,9.21,6.44,17.42,13.76,24.58,21.9,7.17,8.17,13.82,16.61,19.97,25.33,6.15,8.74,12.04,16.89,17.67,24.48,5.64,7.59,11.53,14.33,17.67,20.2,6.15,5.89,12.8,10.53,19.97,13.95,7.17,3.4,15.52,5.13,25.09,5.13,11.27,0,20.9-2.47,28.92-7.4,8.02-4.93,14.59-11.85,19.71-20.78,5.13-8.91,8.87-19.44,11.27-31.58,2.38-12.14,3.57-25.41,3.57-39.83,0-6.06,2.83-10.14,8.44-12.23,5.64-2.08,13.91-3.13,24.84-3.13,6.49,0,11.95.28,16.37.85,4.44.57,8.02,1.62,10.76,3.13,2.72,1.51,4.61,3.42,5.64,5.7,1.02,2.28,1.36,5.13,1.02,8.53v18.76Z"/>
  <path class="cls-1" d="M355.04,386.5c-19.01,0-36-2.44-50.49-7.27-14.23-4.73-27.19-11.26-38.5-19.38-10.91-7.84-20.65-16.84-28.95-26.77-7.29-8.68-14.38-17.78-21.06-27.01-6.18-8.53-12.1-16.49-17.79-23.92-4.96-6.49-10.13-12.31-15.35-17.32-4.16-3.97-8.68-7.15-13.37-9.39-3.71-1.76-8.32-2.66-13.72-2.66-6.45,0-11.41,1.25-15.16,3.82-4.84,3.32-8.77,7.74-12.01,13.48-3.73,6.61-6.49,14.57-8.21,23.63-1.92,10.11-2.89,21.16-2.89,32.84,0,17.51-9.48,31.38-25.36,37.12-8.71,3.11-19.7,4.62-33.67,4.62-8.4,0-15.31-.5-21.12-1.55-6.71-1.16-12.47-3-17.43-5.58-8.15-4.22-14.08-10.79-17.13-18.98-1.89-5.06-2.86-10.53-2.86-16.2v-15.36c0-28.74,3.7-54.64,10.99-76.96,7.5-23.02,18.26-42.77,32-58.72,14.15-16.4,31.32-28.92,51.06-37.22,19.33-8.12,40.47-12.23,62.85-12.23,18.6,0,35.45,2.43,50.09,7.22,14.39,4.73,27.37,11.1,38.6,18.95,10.82,7.57,20.6,16.28,29.07,25.9,7.77,8.86,15.05,18.09,21.66,27.48,6.03,8.58,11.79,16.54,17.3,23.96,4.77,6.42,9.76,12.14,14.85,17,4.22,4.06,8.6,7.13,13.4,9.42,3.71,1.76,8.5,2.66,14.23,2.66,6.56,0,11.69-1.19,15.69-3.66,4.44-2.73,8.05-6.59,11.06-11.84,3.72-6.47,6.54-14.51,8.4-23.91,2.05-10.45,3.09-22.21,3.09-34.94,0-16.7,9.31-30.11,24.91-35.9,8.64-3.2,19.32-4.69,33.61-4.69,7.7,0,14.11.34,19.61,1.05,7.64.99,14.09,2.96,19.69,6.04,7.54,4.17,13.22,10.19,16.48,17.45,2.68,5.98,3.77,12.68,3.24,19.95v18.36c-.76,28.62-5.58,54.31-14.33,76.35-8.76,22.08-20.28,41.04-34.27,56.36-14.39,15.75-31.3,27.8-50.29,35.82-18.78,7.92-38.27,11.95-57.95,11.95ZM155.83,202.31c12.98,0,24.9,2.55,35.45,7.59,9.52,4.54,18.45,10.75,26.52,18.46,7.12,6.83,14.02,14.6,20.55,23.13,5.93,7.75,12.12,16.07,18.58,24.98,5.98,8.26,12.32,16.4,18.86,24.19,5.62,6.72,12.25,12.83,19.72,18.21,7.17,5.15,15.57,9.34,24.98,12.48,9.35,3.11,20.97,4.69,34.55,4.69s25.61-2.6,38.31-7.97c12.4-5.23,23.09-12.87,32.65-23.35,9.84-10.78,18.13-24.56,24.63-40.94,6.52-16.44,10.14-36.19,10.77-58.75v-11.16c-5.07-.3-12.53-.29-16.8.05-.46,12.22-1.75,23.8-3.86,34.54-2.94,14.85-7.7,28.07-14.16,39.3-7.2,12.55-16.75,22.54-28.37,29.69-12,7.38-26.17,11.14-42.13,11.14-13.29,0-25.38-2.55-35.94-7.57-9.63-4.6-18.56-10.82-26.59-18.52-7.12-6.81-14.02-14.69-20.47-23.39-5.75-7.75-11.77-16.07-18.05-25-5.57-7.9-11.73-15.72-18.29-23.2-5.8-6.57-12.56-12.6-20.09-17.87-7.17-5.01-15.73-9.17-25.41-12.35-9.54-3.12-21.1-4.71-34.36-4.71-15.63,0-30.2,2.79-43.29,8.28-12.66,5.33-23.26,13.07-32.39,23.66-9.33,10.83-16.83,24.78-22.25,41.41-5.64,17.28-8.5,37.91-8.5,61.32v6.94c4.15.33,12.3.32,16.79-.05.41-11.58,1.63-22.72,3.62-33.23,2.74-14.44,7.39-27.55,13.81-38.97,7-12.43,16.22-22.62,27.41-30.31,12.28-8.43,26.98-12.7,43.73-12.7ZM50.47,325.98h0Z"/>
</svg>