<?xml version="1.0" encoding="UTF-8"?>
<svg id="Camada_1" xmlns="http://www.w3.org/2000/svg" version="1.1" viewBox="0 0 256 128">
  <!-- Generator: Adobe Illustrator 29.1.0, SVG Export Plug-In . SVG Version: 2.1.0 Build 142)  -->
  <defs>
    <style>
      .st0 {
        fill: #5c6bc0;
      }
    </style>
  </defs>
  <path class="st0" d="M85.9,110h71.3l-3.4-11c.5.4,29.2,25,29.2,25V16.4c-.3-6.7-6.1-12.4-13.2-12.4h-83.9c-7.1,0-12.9,5.7-12.9,12.4v81.2c0,7.1,5.8,12.4,12.9,12.4h0ZM138.6,32.4h-.2c0,0,.1,0,.1,0h0ZM100.5,38.8c9.2-6.7,17.7-6.4,17.7-6.4l.7.7c-11.2,2.7-16.3,7.7-16.3,7.7.5,0,23.2-13.2,50.6.3,0,0-5.1-4.7-15.6-7.7l.9-.9c1.5,0,9.2.3,17.4,6.3,0,0,9.2,15.8,9.2,35.1-.3-.4-5.7,8.3-19.7,8.6,0,0-2.4-2.7-4-5,8.2-2.3,11.2-7,11.2-7-15.9,10-29.8,8.4-46.4,1.7-.2,0-.2,0-.3-.2h0c0,0-.2,0-.3,0h-.3c-1-.7-1.7-1-1.7-1,0,0,3,4.7,10.9,7-2.1,2.3-4.1,5-4.1,5-13.9-.3-19-9-19-9,0-19.4,9.1-35.1,9.1-35.1h0Z"/>
  <path class="st0" d="M139.5,67.9c3.6,0,6.5-3,6.5-6.7s-2.9-6.7-6.5-6.7h0c-3.5,0-6.4,3-6.4,6.7s2.9,6.7,6.4,6.7Z"/>
  <path class="st0" d="M116.4,67.9c3.6,0,6.4-3,6.4-6.7s-2.9-6.7-6.4-6.7h0c-3.6,0-6.4,3-6.4,6.7s2.9,6.7,6.4,6.7Z"/>
</svg>