<?xml version="1.0" encoding="utf-8"?>
<!-- Generator: Adobe Illustrator 27.0.1, SVG Export Plug-In . SVG Version: 6.00 Build 0)  -->
<svg version="1.1" id="Camada_1" xmlns="http://www.w3.org/2000/svg" xmlns:xlink="http://www.w3.org/1999/xlink" x="0px" y="0px"
	 viewBox="0 0 256 128" style="enable-background:new 0 0 256 128;" xml:space="preserve">
<style type="text/css">
	.st0{fill:#5C6BC0;}
</style>
<g>
	<path class="st0" d="M85.9,110h71.3l-3.4-11c0.5,0.4,29.2,25,29.2,25V16.4C182.7,9.7,176.9,4,169.8,4L85.9,4C78.8,4,73,9.7,73,16.4
		v81.2C73,104.7,78.8,110,85.9,110L85.9,110z M138.6,32.4l-0.2,0.1l0.1-0.1H138.6z M100.5,38.8c9.2-6.7,17.7-6.4,17.7-6.4l0.7,0.7
		c-11.2,2.7-16.3,7.7-16.3,7.7c0.5-0.1,23.2-13.2,50.6,0.3c0,0-5.1-4.7-15.6-7.7l0.9-0.9c1.5,0,9.2,0.3,17.4,6.3
		c0,0,9.2,15.8,9.2,35.1c-0.3-0.4-5.7,8.3-19.7,8.6c0,0-2.4-2.7-4-5c8.2-2.3,11.2-7,11.2-7c-15.9,10-29.8,8.4-46.4,1.7
		c-0.2,0-0.2-0.1-0.3-0.2v0c-0.1-0.1-0.2-0.1-0.3-0.1h-0.3c-1-0.7-1.7-1-1.7-1s3,4.7,10.9,7c-2.1,2.3-4.1,5-4.1,5
		c-13.9-0.3-19-9-19-9C91.3,54.5,100.5,38.8,100.5,38.8L100.5,38.8z"/>
	<path class="st0" d="M139.5,67.9c3.6,0,6.5-3,6.5-6.7c0-3.7-2.9-6.7-6.5-6.7v0c-3.5,0-6.4,3-6.4,6.7
		C133.1,64.9,136,67.9,139.5,67.9z"/>
	<path class="st0" d="M116.4,67.9c3.6,0,6.4-3,6.4-6.7c0-3.7-2.9-6.7-6.4-6.7l0,0c-3.6,0-6.4,3-6.4,6.7
		C110,64.9,112.9,67.9,116.4,67.9z"/>
</g>
</svg>
