<?xml version="1.0" encoding="UTF-8"?>
<svg id="Capa_1" xmlns="http://www.w3.org/2000/svg" version="1.1" viewBox="0 0 256 128">
  <!-- Generator: Adobe Illustrator 29.1.0, SVG Export Plug-In . SVG Version: 2.1.0 Build 142)  -->
  <defs>
    <style>
      .st0 {
        fill: #ffc107;
      }

      .st1 {
        fill: #ffa000;
      }

      .st2 {
        fill: #455a64;
      }

      .st3 {
        fill: #ffd54f;
      }
    </style>
  </defs>
  <path class="st3" d="M185.5,12l-43.9,31.7-7.2,5.2c-3.8,2.8-9,2.8-12.8,0l-7.2-5.2-43.9-31.7c2.4-3.4,6.4-5.4,10.6-5.4h93.9c4.1,0,8,2,10.5,5.4Z"/>
  <g>
    <path class="st0" d="M70.5,12l43.9,31.7-42.6,42.6c-2.4-2.5-3.8-5.8-3.8-9.3V19.7c0-2.8.8-5.4,2.5-7.7Z"/>
    <path class="st0" d="M188,19.7v57.3c0,3.5-1.4,6.8-3.8,9.2l-42.6-42.6,43.9-31.6c1.6,2.2,2.5,4.9,2.5,7.7Z"/>
  </g>
  <path class="st2" d="M146.3,100.5c-3.5,0-5.2-2.6-5.2-7.8.1-7.3-5.8-13.3-13-13.4-7.3,0-13.3,5.8-13.4,13,0,7.3,5.8,13.3,13,13.4,3.9,0,7.6-1.6,10.2-4.6,1.7,3,5,4.7,8.4,4.6,10.4,0,10.4-9.8,10.4-13,0-15.8-12.8-28.7-28.7-28.7s-28.7,12.8-28.7,28.7,12.8,28.7,28.7,28.7,14.6-2.9,20-8.1c1-1,1.1-2.7,0-3.7-1-1-2.7-1.1-3.7,0h0c-9.3,9-24.2,8.7-33.2-.6s-8.7-24.2.6-33.2,24.2-8.7,33.2.6c4.2,4.4,6.6,10.2,6.6,16.3,0,5.8-1.3,7.8-5.2,7.8ZM128,100.5c-4.3,0-7.8-3.5-7.8-7.8s3.5-7.8,7.8-7.8,7.8,3.5,7.8,7.8-3.5,7.8-7.8,7.8Z"/>
  <path class="st1" d="M141.6,43.7l-7.2,5.2c-3.8,2.8-9,2.8-12.8,0l-7.2-5.2-42.6,42.6c2.5,2.4,5.8,3.8,9.2,3.8h13.2c1.4-18.7,17.7-32.6,36.3-31.2,16.7,1.3,30,14.5,31.2,31.2h13.3c3.5,0,6.8-1.4,9.2-3.8l-42.6-42.6Z"/>
</svg>