<?xml version="1.0" encoding="UTF-8"?>
<svg id="Layer_1" data-name="Layer 1" xmlns="http://www.w3.org/2000/svg" viewBox="0 0 512 512">
  <defs>
    <style>
      .cls-1 {
        fill: #ec407a;
      }
    </style>
  </defs>
  <path class="cls-1" d="M256,0C114.8,0,0,114.8,0,256s114.8,256,256,256c45,0,89.3-11.8,128-34.3l-32-55.4c-29,16.8-62.2,25.7-96,25.7-105.9,0-192-86.1-192-192S150.1,64,256,64s192,86.1,192,192v27.9c0,20.9-13.5,36.1-32,36.1s-32-14.4-32-32v-128h-44.2c-22.5-19.7-51.6-32-83.8-32-70.6,0-128,57.4-128,128s57.4,128,128,128c33.6,0,64-13.3,86.9-34.6,17.6,20.9,43.7,34.6,73.1,34.6,53.8,0,96-44,96-100.1v-27.9C512,114.8,397.2,0,256,0ZM256,320c-35.3,0-64-28.7-64-64s28.7-64,64-64,64,28.7,64,64-28.7,64-64,64Z"/>
</svg>