<?xml version="1.0" encoding="UTF-8"?>
<svg id="Layer_1" data-name="Layer 1" xmlns="http://www.w3.org/2000/svg" viewBox="0 0 512 512">
  <defs>
    <style>
      .cls-1 {
        fill: #ef5350;
      }
    </style>
  </defs>
  <path class="cls-1" d="M499.96,324.68l-112.8-68.56,112.8-68.56c12.16-7.35,15.78-22.77,7.76-34.28l-48.38-71.25c-4.92-7.1-13.19-11.51-21.99-11.51-4.92,0-9.83,1.47-14.23,3.92l-96.24,58.52V24.73c0-13.71-11.64-24.73-26.13-24.73h-89.51c-14.49,0-26.13,11.02-26.13,24.73v108.23l-96.24-58.52c-4.14-2.69-9.05-3.92-14.23-3.92-9.05,0-17.33,4.16-21.99,11.51L4.28,153.04c-7.76,11.51-4.4,26.93,7.76,34.28l112.8,68.56L12.04,324.44c-12.16,7.35-15.78,22.77-7.76,34.28l48.38,71.5c4.92,7.1,13.19,11.51,21.99,11.51,4.92,0,9.83-1.47,14.23-3.92l95.98-58.52v107.98c0,13.71,11.64,24.73,26.13,24.73h89.51c14.49,0,26.13-11.02,26.13-24.73v-108.23l95.98,58.52c4.14,2.69,9.05,3.92,14.23,3.92h0c9.05,0,17.33-4.16,21.99-11.51l48.38-71.25c8.28-11.26,4.92-26.44-7.24-34.04Z"/>
</svg>