<?xml version="1.0" encoding="UTF-8"?>
<svg id="Layer_1" data-name="Layer 1" xmlns="http://www.w3.org/2000/svg" viewBox="0 0 512 512">
  <defs>
    <style>
      .cls-1 {
        fill: #9575cd;
      }
    </style>
  </defs>
  <path class="cls-1" d="M503.88,236.17L319.02,51.21c-5.31-5.31-12.28-8.22-19.78-8.22s-14.57,2.91-19.78,8.22l-16.76,16.76c-5.31,5.31-8.22,12.28-8.22,19.78s2.91,14.78,8.22,20.09l107.94,108.14H27.69c-15.51,0-27.69,12.07-27.69,27.58v23.73c0,15.51,12.18,28.73,27.69,28.73h344l-109.19,108.77c-5.31,5.31-8.22,12.18-8.22,19.67s2.91,14.47,8.22,19.67l16.76,16.76c5.31,5.31,12.28,8.12,19.78,8.12s14.57-2.91,19.78-8.22l184.96-184.96c5.31-5.31,8.22-12.39,8.22-19.88.1-7.39-2.81-14.47-8.12-19.78Z"/>
</svg>