<?xml version="1.0" encoding="UTF-8"?>
<svg id="apps" xmlns="http://www.w3.org/2000/svg" version="1.1" viewBox="0 0 256 128">
  <!-- Generator: Adobe Illustrator 29.1.0, SVG Export Plug-In . SVG Version: 2.1.0 Build 142)  -->
  <path id="surface1" d="M128,4.7c-32.9,0-59.5,26.6-59.5,59.5s26.6,59.5,59.5,59.5,59.5-26.6,59.5-59.5S160.9,4.8,128,4.7ZM128,9.9c30,0,54.3,24.3,54.3,54.3s-24.3,54.4-54.3,54.4-54.3-24.3-54.3-54.4h0c0-29.9,24.2-54.3,54.3-54.3h0ZM124.4,26.7c-20.3,4.8-43.9,29.5-41.6,48.2,11.1-19.5,18.5-22.1,20.6-22.1s3.2,1.1,3.2,3.5v29c0,3.6-3.5,3.2-5.8,2.8,8.6,12.8,28.6,13.7,28.6,13.7l8.9-9.8,8.6,7.4c13.1-8.5,21.8-22.9,21.8-25.1-6.5,7.2-12.1,8.5-13.3,8.5s-3.3-.2-3.3-1.9v-34.4c0-3,8.2-12.8,10.8-16.1-17.1,4.5-23.7,13-23.7,13,0,0-2.3-1.7-7.4-1.7,1.9,1.6,4.6,4.5,4.6,8v31.6s-5.7,4.1-9,4.1-5.7-1.4-5.7-3.9v-37.8s-4.7,3.3-4.7-6.4c0-4.9,7.4-10.6,7.4-10.6Z"/>
</svg>