<?xml version="1.0" encoding="utf-8"?>
<!-- Generator: Adobe Illustrator 27.0.1, SVG Export Plug-In . SVG Version: 6.00 Build 0)  -->
<svg version="1.1" id="apps" xmlns="http://www.w3.org/2000/svg" xmlns:xlink="http://www.w3.org/1999/xlink" x="0px" y="0px"
	 viewBox="0 0 256 128" style="enable-background:new 0 0 256 128;" xml:space="preserve">
<path id="surface1" d="M128,4.7c-32.9,0-59.5,26.6-59.5,59.5s26.6,59.5,59.5,59.5s59.5-26.6,59.5-59.5C187.5,31.4,160.9,4.8,128,4.7
	z M128,9.9c30,0,54.3,24.3,54.3,54.3S158,118.6,128,118.6S73.7,94.3,73.7,64.2c0,0,0,0,0,0C73.7,34.3,97.9,9.9,128,9.9
	C128,9.9,128,9.9,128,9.9z M124.4,26.7c-20.3,4.8-43.9,29.5-41.6,48.2c11.1-19.5,18.5-22.1,20.6-22.1s3.2,1.1,3.2,3.5v29
	c0,3.6-3.5,3.2-5.8,2.8c8.6,12.8,28.6,13.7,28.6,13.7l8.9-9.8l8.6,7.4c13.1-8.5,21.8-22.9,21.8-25.1c-6.5,7.2-12.1,8.5-13.3,8.5
	c-1.3,0-3.3-0.2-3.3-1.9V46.5c0-3,8.2-12.8,10.8-16.1c-17.1,4.5-23.7,13-23.7,13s-2.3-1.7-7.4-1.7c1.9,1.6,4.6,4.5,4.6,8v31.6
	c0,0-5.7,4.1-9,4.1s-5.7-1.4-5.7-3.9V43.7c0,0-4.7,3.3-4.7-6.4C117.1,32.4,124.4,26.7,124.4,26.7z"/>
</svg>
