<?xml version="1.0" encoding="utf-8"?>
<!-- Generator: Adobe Illustrator 27.0.1, SVG Export Plug-In . SVG Version: 6.00 Build 0)  -->
<svg version="1.1" id="Camada_1" xmlns="http://www.w3.org/2000/svg" xmlns:xlink="http://www.w3.org/1999/xlink" x="0px" y="0px"
	 viewBox="0 0 256 128" style="enable-background:new 0 0 256 128;" xml:space="preserve">
<style type="text/css">
	.st0{fill:#2489CA;}
	.st1{fill:#1070B3;}
	.st2{fill:#0877B9;}
	.st3{fill:#3C99D4;}
</style>
<path class="st0" d="M69.1,46c0,0-2.9-2.1,0.6-4.9l8.2-7.3c0,0,2.3-2.5,4.8-0.3l75.4,57.1V118c0,0,0,4.3-5.6,3.8L69.1,46z"/>
<path class="st1" d="M88.6,63.7L69.1,81.4c0,0-2,1.5,0,4.1l9,8.2c0,0,2.1,2.3,5.3-0.3l20.6-15.6L88.6,63.7z"/>
<path class="st2" d="M122.7,63.8l35.6-27.2l-0.2-27.2c0,0-1.5-5.9-6.6-2.8l-47.4,43.2L122.7,63.8z"/>
<path class="st3" d="M152.6,121.8c2.1,2.1,4.6,1.4,4.6,1.4l27.8-13.7c3.6-2.4,3.1-5.4,3.1-5.4V22.4c0-3.6-3.7-4.8-3.7-4.8L160.2,5.9
	c-5.3-3.3-8.7,0.6-8.7,0.6s4.4-3.2,6.6,2.8v108.1c0,0.7-0.2,1.5-0.5,2.1c-0.6,1.3-2,2.5-5.3,2L152.6,121.8z"/>
</svg>
