<?xml version="1.0" encoding="UTF-8"?>
<svg id="Camada_1" xmlns="http://www.w3.org/2000/svg" version="1.1" viewBox="0 0 256 128">
  <!-- Generator: Adobe Illustrator 29.1.0, SVG Export Plug-In . SVG Version: 2.1.0 Build 142)  -->
  <defs>
    <style>
      .st0 {
        fill: #2489ca;
      }

      .st1 {
        fill: #0877b9;
      }

      .st2 {
        fill: #3c99d4;
      }

      .st3 {
        fill: #1070b3;
      }
    </style>
  </defs>
  <path class="st0" d="M69.1,46s-2.9-2.1.6-4.9l8.2-7.3s2.3-2.5,4.8-.3l75.4,57.1v27.4s0,4.3-5.6,3.8L69.1,46Z"/>
  <path class="st3" d="M88.6,63.7l-19.5,17.7s-2,1.5,0,4.1l9,8.2s2.1,2.3,5.3-.3l20.6-15.6-15.4-14.1Z"/>
  <path class="st1" d="M122.7,63.8l35.6-27.2-.2-27.2s-1.5-5.9-6.6-2.8l-47.4,43.2,18.6,14Z"/>
  <path class="st2" d="M152.6,121.8c2.1,2.1,4.6,1.4,4.6,1.4l27.8-13.7c3.6-2.4,3.1-5.4,3.1-5.4V22.4c0-3.6-3.7-4.8-3.7-4.8l-24.2-11.7c-5.3-3.3-8.7.6-8.7.6,0,0,4.4-3.2,6.6,2.8v108.1c0,.7-.2,1.5-.5,2.1-.6,1.3-2,2.5-5.3,2l.3.3Z"/>
</svg>