<?xml version="1.0" encoding="utf-8"?>
<!-- Generator: Adobe Illustrator 27.0.1, SVG Export Plug-In . SVG Version: 6.00 Build 0)  -->
<svg version="1.1" id="Camada_1" xmlns="http://www.w3.org/2000/svg" xmlns:xlink="http://www.w3.org/1999/xlink" x="0px" y="0px"
	 viewBox="0 0 256 128" style="enable-background:new 0 0 256 128;" xml:space="preserve">
<style type="text/css">
	.st0{fill:#FF0000;}
	.st1{fill:#FFFFFF;}
</style>
<path class="st0" d="M195.1,30.6c-1.6-6-6.3-10.7-12.3-12.3c-11-3-54.8-3-54.8-3s-43.8,0-54.8,2.9c-5.9,1.6-10.7,6.5-12.3,12.5
	C58,41.5,58,64.2,58,64.2s0,22.8,2.9,33.7c1.6,6,6.3,10.7,12.3,12.3c11.1,3,54.8,3,54.8,3s43.8,0,54.8-2.9c6-1.6,10.7-6.3,12.3-12.3
	c2.9-11,2.9-33.7,2.9-33.7S198.1,41.5,195.1,30.6z"/>
<path class="st1" d="M114,85.2l36.4-21l-36.4-21V85.2z"/>
</svg>
