<?xml version="1.0" encoding="UTF-8"?>
<svg id="Camada_1" xmlns="http://www.w3.org/2000/svg" version="1.1" viewBox="0 0 256 128">
  <!-- Generator: Adobe Illustrator 29.1.0, SVG Export Plug-In . SVG Version: 2.1.0 Build 142)  -->
  <defs>
    <style>
      .st0 {
        fill: #fff;
      }

      .st1 {
        fill: red;
      }
    </style>
  </defs>
  <path class="st1" d="M195.1,30.6c-1.6-6-6.3-10.7-12.3-12.3-11-3-54.8-3-54.8-3,0,0-43.8,0-54.8,2.9-5.9,1.6-10.7,6.5-12.3,12.5-2.9,10.8-2.9,33.5-2.9,33.5,0,0,0,22.8,2.9,33.7,1.6,6,6.3,10.7,12.3,12.3,11.1,3,54.8,3,54.8,3,0,0,43.8,0,54.8-2.9,6-1.6,10.7-6.3,12.3-12.3,2.9-11,2.9-33.7,2.9-33.7,0,0,.1-22.8-2.9-33.7Z"/>
  <path class="st0" d="M114,85.2l36.4-21-36.4-21s0,42,0,42Z"/>
</svg>